<svg xmlns="http://www.w3.org/2000/svg" version="1.1" viewBox="0 0 800 400"><path d="M324.2152404785156,361.4349670410156C348.57996622721356,355.00746663411456,431.24066670735675,342.0029983520508,470.4035949707031,322.8699645996094C509.5665232340495,303.73693084716797,532.8848927815756,278.17637634277344,559.1928100585938,246.6367645263672C585.5007273356119,215.09715270996094,617.9371948242188,166.66667238871256,628.2510986328125,133.63229370117188C638.5650024414062,100.5979150136312,644.9925231933594,69.80568035443623,621.0762329101562,48.43049240112305C597.1599426269531,27.055304447809856,525.8594868977865,12.406576871871948,484.75335693359375,5.381165981292725C443.64722696940106,-1.644244909286499,403.5874328613281,2.0926759243011475,374.439453125,6.278027057647705C345.2914733886719,10.463378190994263,334.67863210042316,18.684603452682495,309.865478515625,30.49327278137207C285.05232493082684,42.301942110061646,250.37368774414062,59.3423007329305,225.56053161621094,77.13004302978516C200.74737548828125,94.91778532663982,177.87742233276367,114.49924850463867,160.98654174804688,137.2197265625C144.09566116333008,159.94020462036133,134.52914810180664,185.20178731282553,124.21524810791016,213.45291137695312C113.90134811401367,241.70403544108072,100.14948018391927,281.1659342447917,99.10314178466797,306.7264709472656C98.05680338541667,332.28700764973956,98.50522994995117,355.1569417317708,117.93721771240234,366.8161315917969C137.36920547485352,378.47532145182294,181.16591771443686,377.4289906819661,215.695068359375,376.6816101074219C250.22421900431314,375.9342295328776,306.8759460449219,364.7234751383464,325.11212158203125,362.33184814453125" fill="none" stroke-width="9" stroke="url(&quot;#SvgjsLinearGradient1007&quot;)" stroke-linecap="round" stroke-dasharray="37 15"></path><defs><linearGradient id="SvgjsLinearGradient1007" gradientTransform="rotate(0, 0.5, 0.5)"><stop stop-color="hsl(37, 99%, 67%)" offset="0"></stop><stop stop-color="hsl(316, 73%, 52%)" offset="1"></stop></linearGradient></defs></svg>