<svg xmlns="http://www.w3.org/2000/svg" version="1.1" viewBox="0 0 800 400"><path d="M4.932735443115234,241.25559997558594C29.641256828308105,243.13004089355468,85.7309502029419,247.5426011657715,134.9775848388672,251.12107849121094C184.22421947479248,254.6995558166504,211.81164871215822,258.0448457336426,264.12554931640625,260.0896911621094C316.4394499206543,262.13453659057615,350.6726440429687,262.3946334838867,410.31390380859375,261.8834228515625C469.9551635742188,261.3722122192383,521.4529205322266,260.9775862121582,578.0269165039062,257.39910888671875C634.6009124755859,253.8206315612793,666.6637103271485,246.28699996948242,708.07177734375,243.04933166503906C749.4798443603515,239.8116633605957,783.8654577636719,232.5201853942871,795.964111328125,240.35874938964844C808.0627648925781,248.19731338500978,808.3856652832031,273.3991038513184,771.7489013671875,284.304931640625C735.1121374511719,295.2107594299316,660.2242446899414,293.15694732666014,603.1390380859375,297.7578430175781C546.0538314819336,302.3587387084961,524.6367703247071,307.32734344482424,471.3004455566406,308.5201721191406C417.96412078857423,309.713000793457,389.730955657959,305.73992218017577,322.4215393066406,304.035888671875C255.11212295532226,302.33185516357423,137.48879348754883,295.4618896484375,117.04035949707031,299.55157470703125C96.59192550659179,303.641259765625,169.64125076293945,318.23319641113284,214.79820251464844,325.560546875C259.9551542663574,332.88789733886716,297.452921295166,335.39012237548826,354.7085266113281,338.1165771484375C411.96413192749026,340.84303192138674,461.7847476196289,341.1031317138672,516.1434936523438,339.9103088378906C570.5022396850586,338.71748596191406,645.7488946533203,326.72645568847656,640.8071899414062,331.83856201171875C635.8654852294922,336.95066833496094,532.7354229736328,359.31837371826174,490.134521484375,366.8161315917969C447.5336199951172,374.313889465332,433.6322772216797,365.8475302124023,416.5919189453125,371.3004455566406C399.5515606689453,376.75336090087893,403.51568908691405,390.91479034423827,400.44842529296875,395.51568603515625" fill="none" stroke-width="10" stroke="url(&quot;#SvgjsLinearGradient1009&quot;)" stroke-linecap="round" transform="matrix(0.95,0,0,0.95,20.16193523406986,15.821974563598644)" stroke-dasharray="0 0"></path><defs><linearGradient id="SvgjsLinearGradient1009"><stop stop-color="hsl(10, 99%, 67%)" offset="0"></stop><stop stop-color="#fb923c" offset="1"></stop></linearGradient></defs></svg>